<svg width="194" height="40" viewBox="0 0 194 40" fill="none" xmlns="http://www.w3.org/2000/svg"><g clip-path="url(#clip0_1198_772389)"><path d="M12.083 17.44c.317-.2.62-.474.903-.812.571-.68.859-1.559.859-2.605 0-1.49-.49-2.712-1.461-3.625-.962-.908-2.252-1.369-3.834-1.369H0v17.357h8.58c1.875 0 3.313-.456 4.275-1.355.97-.908 1.461-2.133 1.461-3.64 0-1.197-.328-2.186-.973-2.94a3.946 3.946 0 00-1.26-1.01zM4.16 19.417h4.17c.542 0 .962.146 1.285.447.314.293.466.689.466 1.203 0 .518-.15.91-.458 1.206-.31.296-.786.445-1.418.445H4.16v-3.301zm5.143-3.937c-.33.317-.767.468-1.341.468H4.16v-3.251h4.024c.458 0 .834.143 1.146.436.306.287.455.642.455 1.092 0 .534-.157.943-.482 1.255zM30.543 18.4c.924-.995 1.39-2.25 1.39-3.732 0-1.677-.594-3.054-1.764-4.091-1.157-1.027-2.694-1.548-4.566-1.548h-8.33v17.357h4.16v-6.078h1.175l5.423 6.037.038.044h5.18l-5.687-6.296c1.211-.298 2.214-.867 2.98-1.693zM27.8 14.668c0 .54-.187.962-.574 1.288-.401.338-.946.512-1.62.512h-4.174v-3.599h4.17c.675 0 1.22.17 1.621.512.388.325.577.748.577 1.287zM39.076 9.03h-4.16v17.356h4.16V9.029zM77.393 11.295c-1.759-1.75-3.937-2.637-6.474-2.637-2.536 0-4.712.886-6.47 2.637-1.76 1.75-2.651 3.915-2.651 6.435 0 2.504.892 4.659 2.65 6.401 1.759 1.743 3.935 2.623 6.471 2.623 2.537 0 4.713-.883 6.471-2.623 1.76-1.742 2.65-3.897 2.65-6.4.003-2.52-.888-4.686-2.647-6.436zm-1.534 6.438c0 1.447-.48 2.667-1.428 3.623-.945.954-2.127 1.44-3.509 1.44-1.382 0-2.56-.486-3.51-1.44-.948-.956-1.427-2.173-1.427-3.623 0-1.45.482-2.677 1.43-3.65.946-.97 2.128-1.46 3.507-1.46 1.38 0 2.56.49 3.507 1.46.95.97 1.43 2.2 1.43 3.65zM55.62 18.806l-.038.177c-.277 1.284-.819 2.254-1.613 2.883-.796.631-1.77.95-2.888.95-1.364 0-2.537-.49-3.483-1.46-.948-.973-1.43-2.2-1.43-3.65 0-1.45.477-2.675 1.417-3.636.938-.963 2.114-1.45 3.496-1.45 1.105 0 2.073.32 2.877.95.794.624 1.336 1.573 1.616 2.825l4.113-.754-.062-.292c-.431-2.05-1.445-3.694-3.016-4.894-1.564-1.195-3.423-1.8-5.531-1.8-2.537 0-4.71.884-6.46 2.626-1.751 1.742-2.637 3.905-2.637 6.425 0 2.537.889 4.704 2.64 6.436 1.75 1.732 3.92 2.612 6.457 2.612 2.124 0 3.994-.618 5.558-1.84 1.571-1.225 2.577-2.945 2.989-5.108l.048-.26-4.053-.74z" fill="#372123"/><path d="M12.867 29.657l-12.82 2.3.566 3.148 12.819-2.301-.565-3.147zM192.663.01l-12.552 2.317.569 3.08 12.552-2.317-.569-3.08zM92.568 20.04L86.642 9.237l-.114-.209h-3.577v17.357h4.062v-7.864l4.33 7.864h2.474l4.306-7.859v7.859h4.063V9.029h-3.553l-6.065 11.01zM114.987 9.157h-3.496l-7.406 17.101h4.23l1.458-3.533h6.948l1.434 3.533h4.232l-7.33-16.936-.07-.165zm-3.832 10.083l2.095-5.108 2.073 5.108h-4.168zM137.56 18.4c.924-.995 1.39-2.25 1.39-3.732 0-1.677-.594-3.054-1.764-4.091-1.157-1.028-2.694-1.548-4.566-1.548h-8.333v17.357h4.16v-6.078h1.176l5.422 6.037.038.044h5.181l-5.688-6.296c1.214-.298 2.217-.867 2.984-1.693zm-2.743-3.732c0 .54-.187.962-.574 1.288-.401.338-.946.512-1.621.512h-4.17v-3.599h4.17c.675 0 1.22.17 1.621.512.385.325.574.745.574 1.287zM172.772 15.75h-7.108V9.03h-4.16v17.356h4.16V19.59h7.108v6.796h4.159V9.029h-4.159v6.72zM184.741 22.546V19.59h8.449V15.8h-8.449V12.87h8.59V9.03h-12.752v17.357h12.804v-3.84h-8.642zM154.588 18.806l-.037.177c-.277 1.284-.819 2.254-1.613 2.883-.796.631-1.769.95-2.888.95-1.364 0-2.537-.49-3.483-1.46-.948-.973-1.43-2.2-1.43-3.65 0-1.45.477-2.675 1.417-3.636.937-.963 2.113-1.45 3.496-1.45 1.105 0 2.073.32 2.877.95.794.624 1.336 1.573 1.615 2.825l4.114-.754-.062-.292c-.431-2.05-1.445-3.694-3.016-4.894-1.564-1.195-3.423-1.8-5.531-1.8-2.537 0-4.71.884-6.46 2.626-1.751 1.742-2.637 3.905-2.637 6.425 0 2.537.889 4.704 2.639 6.436 1.751 1.732 3.921 2.612 6.458 2.612 2.124 0 3.994-.618 5.558-1.84 1.571-1.225 2.577-2.945 2.989-5.108l.048-.26-4.054-.74z" fill="#E2001A"/></g><defs><clipPath id="clip0_1198_772389"><path fill="#fff" d="M0 0h193.383v40H0z"/></clipPath></defs></svg>