<svg id="Logo" xmlns="http://www.w3.org/2000/svg" xmlns:xlink="http://www.w3.org/1999/xlink" width="140.806" height="43.133" viewBox="0 0 140.806 43.133">
  <defs>
    <clipPath id="clip-path">
      <rect id="Rectangle_147653" data-name="Rectangle 147653" width="140.806" height="43.133" fill="none"/>
    </clipPath>
  </defs>
  <g id="Groupe_1" data-name="Groupe 1" clip-path="url(#clip-path)">
    <path id="Tracé_203" data-name="Tracé 203" d="M32.417,2.16H3.222A3.222,3.222,0,0,0,0,5.382V43a1.576,1.576,0,0,0,2.537,1.25L10.673,38H32.417a3.222,3.222,0,0,0,3.222-3.222V5.382A3.222,3.222,0,0,0,32.417,2.16" transform="translate(0 -1.447)" fill="#da0035"/>
    <path id="Tracé_204" data-name="Tracé 204" d="M23.43,41.7V34.5l5.037-4.814L33.5,34.5v4.264h2.653V33.93a1.325,1.325,0,0,0-.41-.959L29.383,26.89a1.326,1.326,0,0,0-1.833,0l-6.363,6.082a1.326,1.326,0,0,0-.41.959v8.02a2.41,2.41,0,0,0,2.416,2.406h15.45a2.4,2.4,0,0,0,2.4-2.4V23.3a2.4,2.4,0,0,0-2.4-2.4H18.289a2.4,2.4,0,0,0-2.4,2.4V44.357h2.653v-20.8H38.391V41.7" transform="translate(-10.646 -14.004)" fill="#fff"/>
    <rect id="Rectangle_147651" data-name="Rectangle 147651" width="1.911" height="4.143" transform="translate(20.966 13.845)" fill="#fff"/>
    <path id="Tracé_205" data-name="Tracé 205" d="M132.074,4.954c3.332,0,4.631,1.844,4.631,4.568s-1.3,4.547-4.631,4.547H128.93v4.505h-2.808V7.469c0-1.76.755-2.515,2.515-2.515Zm-2.515,2.619c-.44,0-.629.188-.629.629V11.45h3.143c1.362,0,1.823-.65,1.823-1.928s-.461-1.949-1.823-1.949Z" transform="translate(-84.506 -3.319)" fill="#161615"/>
    <path id="Tracé_206" data-name="Tracé 206" d="M164.49,24.446h-2.745V17.531c0-2.473,1.487-3.814,4.359-3.814a4.562,4.562,0,0,1,1.3.168v2.578a4.77,4.77,0,0,0-1.3-.168c-1.362,0-1.614.5-1.614,1.446Z" transform="translate(-108.375 -9.191)" fill="#161615"/>
    <path id="Tracé_207" data-name="Tracé 207" d="M181.747,20.046V18.369c0-3,1.76-4.652,5.029-4.652,3.437,0,4.987,1.551,4.987,4.652v1.677c0,3-1.718,4.652-4.987,4.652-3.437,0-5.029-1.551-5.029-4.652m7.271-1.677c0-1.341-.356-2.074-2.242-2.074s-2.284.734-2.284,2.074v1.677c0,1.341.4,2.074,2.284,2.074s2.242-.733,2.242-2.074Z" transform="translate(-121.777 -9.191)" fill="#161615"/>
    <path id="Tracé_208" data-name="Tracé 208" d="M217.688,18.306c0-3.29,2.221-4.589,4.987-4.589,3.143,0,5.008,1.3,5.008,4.589v1.677c0,3-1.487,4.715-4.4,4.715a3.294,3.294,0,0,1-2.871-1.194v5.134h-2.724Zm7.251.063c0-1.341-.314-2.074-2.242-2.074-1.886,0-2.284.734-2.284,2.074v1.677c0,1.341.4,2.074,2.284,2.074s2.242-.733,2.242-2.074Z" transform="translate(-145.859 -9.191)" fill="#161615"/>
    <path id="Tracé_209" data-name="Tracé 209" d="M256.311,24.446h-2.745V17.531c0-2.473,1.487-3.814,4.358-3.814a4.557,4.557,0,0,1,1.3.168v2.578a4.767,4.767,0,0,0-1.3-.168c-1.362,0-1.614.5-1.614,1.446Z" transform="translate(-169.898 -9.191)" fill="#161615"/>
    <path id="Tracé_210" data-name="Tracé 210" d="M276.6,0a1.651,1.651,0,0,1,1.635,1.635,1.635,1.635,0,0,1-3.269,0A1.637,1.637,0,0,1,276.6,0m-1.362,4.778h2.724V15.255h-2.724Z" transform="translate(-184.236)" fill="#161615"/>
    <path id="Tracé_211" data-name="Tracé 211" d="M298.873,20.214h-6.5v.314c0,1.09.8,1.593,2.745,1.593a12.152,12.152,0,0,0,3.647-.608v2.577a10.53,10.53,0,0,1-3.667.608c-3.709,0-5.469-1.341-5.469-4.589V18.433c0-2.7,1.236-4.715,4.883-4.715,3.059,0,4.589,1.551,4.589,4.526a8.225,8.225,0,0,1-.231,1.97m-6.5-2.221h4.128v-.314c0-1.048-.692-1.592-2.074-1.592s-2.054.545-2.054,1.592Z" transform="translate(-194.064 -9.192)" fill="#161615"/>
    <path id="Tracé_212" data-name="Tracé 212" d="M321.064,9.368l1.886-.419.419-2.724h2.306V8.949h3.562v2.577h-3.562v4.149c0,1.048.523,1.4,1.32,1.4a7.478,7.478,0,0,0,2.62-.44v2.578a7.074,7.074,0,0,1-2.62.44c-2.326,0-4.044-.943-4.044-4V11.526h-1.886Z" transform="translate(-215.124 -4.171)" fill="#161615"/>
    <path id="Tracé_213" data-name="Tracé 213" d="M359.9,20.214h-6.5v.314c0,1.09.8,1.593,2.745,1.593a12.151,12.151,0,0,0,3.646-.608v2.577a10.527,10.527,0,0,1-3.667.608c-3.709,0-5.469-1.341-5.469-4.589V18.433c0-2.7,1.236-4.715,4.883-4.715,3.059,0,4.589,1.551,4.589,4.526a8.224,8.224,0,0,1-.231,1.97m-6.5-2.221h4.128v-.314c0-1.048-.692-1.592-2.074-1.592s-2.054.545-2.054,1.592Z" transform="translate(-234.951 -9.192)" fill="#161615"/>
    <path id="Tracé_214" data-name="Tracé 214" d="M383.355,21.492a11.3,11.3,0,0,0,4,.67c1.215,0,1.613-.126,1.613-.608,0-.377-.252-.524-1.32-.964l-1.949-.817c-1.341-.566-2.18-1.257-2.18-2.976,0-2.033,1.173-3.081,4.275-3.081a8.27,8.27,0,0,1,3.374.629V16.9a8.344,8.344,0,0,0-3.415-.65c-1.258,0-1.551.188-1.551.566,0,.335.231.461.859.712l2.18.859c1.551.607,2.409,1.383,2.409,3.143,0,2.137-1.257,3.164-4.505,3.164a10.308,10.308,0,0,1-3.793-.629Z" transform="translate(-256.862 -9.191)" fill="#161615"/>
    <rect id="Rectangle_147652" data-name="Rectangle 147652" width="4.633" height="2.305" transform="translate(136.153 7.293)" fill="#161615"/>
    <path id="Tracé_215" data-name="Tracé 215" d="M126.185,66.885c0-3.29,2.221-4.59,4.987-4.59,3.143,0,5.008,1.3,5.008,4.59v1.676c0,3-1.488,4.715-4.4,4.715a3.294,3.294,0,0,1-2.871-1.194v5.133h-2.724Zm7.251.062c0-1.341-.314-2.074-2.242-2.074-1.886,0-2.284.733-2.284,2.074v1.676c0,1.341.4,2.075,2.284,2.075s2.242-.734,2.242-2.075Z" transform="translate(-84.549 -41.74)" fill="#161615"/>
    <path id="Tracé_216" data-name="Tracé 216" d="M162.267,73.024h-2.745V66.109c0-2.472,1.487-3.814,4.359-3.814a4.559,4.559,0,0,1,1.3.168v2.578a4.767,4.767,0,0,0-1.3-.168c-1.362,0-1.614.5-1.614,1.446Z" transform="translate(-106.885 -41.74)" fill="#161615"/>
    <path id="Tracé_217" data-name="Tracé 217" d="M180.016,48.578a1.634,1.634,0,1,1-1.635,1.635,1.65,1.65,0,0,1,1.635-1.635m-1.362,4.778h2.724V63.833h-2.724Z" transform="translate(-119.522 -32.549)" fill="#161615"/>
    <path id="Tracé_218" data-name="Tracé 218" d="M194.443,70.538c.168.776.4.88.88.88s.712-.084.88-.88l1.635-7.481h2.808l-1.781,7.8c-.419,1.844-.859,2.934-3.542,2.934s-3.122-1.069-3.541-2.934L190,63.057h2.808Z" transform="translate(-127.307 -42.25)" fill="#161615"/>
    <path id="Tracé_219" data-name="Tracé 219" d="M231.245,68.791h-6.5v.315c0,1.089.8,1.593,2.745,1.593a12.149,12.149,0,0,0,3.646-.608v2.577a10.52,10.52,0,0,1-3.667.608c-3.709,0-5.469-1.341-5.469-4.589V67.01c0-2.7,1.236-4.715,4.883-4.715,3.059,0,4.589,1.55,4.589,4.527a8.223,8.223,0,0,1-.231,1.969m-6.5-2.221h4.128v-.314c0-1.048-.692-1.592-2.074-1.592s-2.054.544-2.054,1.592Z" transform="translate(-148.751 -41.74)" fill="#161615"/>
    <path id="Tracé_220" data-name="Tracé 220" d="M261.725,68.791h-6.5v.315c0,1.089.8,1.593,2.745,1.593a12.15,12.15,0,0,0,3.646-.608v2.577a10.52,10.52,0,0,1-3.667.608c-3.709,0-5.469-1.341-5.469-4.589V67.01c0-2.7,1.236-4.715,4.883-4.715,3.059,0,4.589,1.55,4.589,4.527a8.223,8.223,0,0,1-.231,1.969m-6.5-2.221h4.128v-.314c0-1.048-.692-1.592-2.074-1.592s-2.054.544-2.054,1.592Z" transform="translate(-169.173 -41.74)" fill="#161615"/>
    <path id="Tracé_221" data-name="Tracé 221" d="M282.646,70.07a11.3,11.3,0,0,0,4,.67c1.216,0,1.613-.126,1.613-.608,0-.377-.251-.523-1.32-.964l-1.949-.818c-1.341-.566-2.179-1.257-2.179-2.976,0-2.033,1.173-3.08,4.275-3.08a8.269,8.269,0,0,1,3.374.629v2.557a8.348,8.348,0,0,0-3.416-.65c-1.257,0-1.55.188-1.55.566,0,.335.23.46.859.712l2.179.86c1.551.607,2.409,1.383,2.409,3.143,0,2.138-1.257,3.164-4.5,3.164a10.306,10.306,0,0,1-3.793-.629Z" transform="translate(-189.383 -41.741)" fill="#161615"/>
    <path id="Tracé_222" data-name="Tracé 222" d="M311.966,85.73a1.634,1.634,0,1,1-1.635,1.634,1.637,1.637,0,0,1,1.635-1.634" transform="translate(-207.933 -57.442)" fill="#da0035"/>
    <path id="Tracé_223" data-name="Tracé 223" d="M322.84,66.78c0-2.682,1.677-4.485,5.008-4.485a6.236,6.236,0,0,1,2.473.5v2.577a6.186,6.186,0,0,0-2.43-.5c-1.635,0-2.305.4-2.305,1.948v1.886c0,1.508.754,1.99,2.494,1.99a7.577,7.577,0,0,0,2.431-.44v2.557a8.039,8.039,0,0,1-2.557.461c-3.563,0-5.113-1.613-5.113-4.484Z" transform="translate(-216.314 -41.74)" fill="#da0035"/>
    <path id="Tracé_224" data-name="Tracé 224" d="M347.54,68.623V66.947c0-3,1.76-4.652,5.029-4.652,3.437,0,4.987,1.551,4.987,4.652v1.676c0,3-1.718,4.652-4.987,4.652-3.437,0-5.029-1.551-5.029-4.652m7.271-1.676c0-1.341-.356-2.074-2.242-2.074s-2.284.733-2.284,2.074v1.676c0,1.341.4,2.075,2.284,2.075s2.242-.734,2.242-2.075Z" transform="translate(-232.864 -41.74)" fill="#da0035"/>
    <path id="Tracé_225" data-name="Tracé 225" d="M383.687,73.024h-2.745v-6.5c0-2.746,1.551-4.233,4.485-4.233a3.5,3.5,0,0,1,3.1,1.342,3.56,3.56,0,0,1,3.081-1.342c3.08,0,4.442,1.425,4.442,4.233v6.5h-2.745v-6.5c0-1.069-.251-1.655-1.7-1.655-1.509,0-1.781.586-1.781,1.655v6.5h-2.661v-6.5c0-1.069-.251-1.655-1.739-1.655-1.467,0-1.74.586-1.74,1.655Z" transform="translate(-255.245 -41.74)" fill="#da0035"/>
  </g>
</svg>
